<?xml version="1.0" standalone="no"?>
<!DOCTYPE svg PUBLIC "-//W3C//DTD SVG 20010904//EN"
 "http://www.w3.org/TR/2001/REC-SVG-20010904/DTD/svg10.dtd">
<svg version="1.0" xmlns="http://www.w3.org/2000/svg"
 width="311.000000pt" height="311.000000pt" viewBox="0 0 311.000000 311.000000"
 preserveAspectRatio="xMidYMid meet">
<metadata>
Created by potrace 1.16, written by Peter Selinger 2001-2019
</metadata>
<g transform="translate(0.000000,311.000000) scale(0.100000,-0.100000)"
fill="#000000" stroke="none">
<path d="M1145 2826 c-72 -17 -174 -67 -240 -117 -106 -80 -196 -216 -232
-352 -24 -87 -23 -308 0 -396 50 -184 175 -338 342 -420 121 -60 148 -63 540
-70 l360 -6 66 -32 c119 -59 208 -170 239 -302 18 -76 8 -231 -19 -301 -42
-109 -140 -208 -251 -252 -51 -20 -75 -22 -321 -26 -166 -2 -288 0 -325 7
-165 31 -299 157 -339 321 -23 93 -35 100 -161 100 -93 0 -106 -2 -125 -21
-19 -19 -21 -29 -16 -85 23 -245 218 -482 477 -581 l75 -28 375 0 375 0 84 32
c114 44 197 101 285 194 83 88 145 200 173 314 23 97 24 326 0 415 -55 207
-197 383 -381 474 -134 66 -153 69 -551 75 l-360 6 -55 27 c-71 35 -143 107
-178 178 -24 50 -27 65 -27 175 0 111 2 125 28 180 36 78 104 146 181 182 l61
28 260 3 c171 2 280 0 320 -8 174 -34 303 -161 345 -338 17 -74 33 -82 155
-82 93 0 103 2 123 23 28 29 28 70 2 166 -70 252 -267 448 -516 511 -69 18
-110 20 -398 19 -217 0 -337 -5 -371 -13z"/>
</g>
</svg>
